<?xml version="1.0" standalone="no"?>
<!DOCTYPE svg PUBLIC "-//W3C//DTD SVG 20010904//EN"
 "http://www.w3.org/TR/2001/REC-SVG-20010904/DTD/svg10.dtd">
<svg version="1.0" xmlns="http://www.w3.org/2000/svg"
 width="512.000000pt" height="512.000000pt" viewBox="0 0 512.000000 512.000000"
 preserveAspectRatio="xMidYMid meet">
<metadata>
Created by potrace 1.14, written by Peter Selinger 2001-2017
</metadata>
<g transform="translate(0.000000,512.000000) scale(0.100000,-0.100000)"
fill="#000000" stroke="none">
<path d="M698 4521 l-33 -29 -2 -1174 c-1 -1260 -3 -1218 49 -1252 22 -15 202
-16 1848 -16 1647 0 1826 1 1847 16 52 34 51 -5 51 1239 0 1258 2 1208 -54
1234 -18 8 -506 11 -1849 11 l-1825 0 -32 -29z m3610 -1154 l2 -977 -37 0
c-44 -1 -3394 -1 -3435 0 l-28 0 0 974 c0 636 4 976 10 978 6 2 792 3 1747 3
l1738 -1 3 -977z"/>
<path d="M717 1982 l-47 -3 -322 -643 c-355 -711 -340 -669 -272 -733 l35 -33
2451 0 2450 0 33 33 c66 66 81 24 -273 734 -240 479 -326 643 -339 643 -98 3
-3680 4 -3716 2z m3569 -81 c28 -1 33 -7 74 -93 24 -51 82 -172 128 -268 125
-261 162 -339 162 -345 0 -3 -940 -5 -2090 -5 -1149 0 -2090 2 -2090 4 0 7 55
125 142 306 47 96 109 225 138 287 40 85 58 113 74 115 17 2 3355 1 3462 -1z
m-1211 -803 c4 -24 9 -52 11 -63 3 -11 6 -35 9 -54 2 -18 6 -41 9 -50 3 -9 7
-38 11 -65 3 -27 8 -53 10 -56 2 -4 7 -34 11 -68 6 -56 4 -62 -12 -63 -24 -1
-1092 -1 -1122 0 -22 1 -23 4 -18 52 6 49 50 323 62 382 l6 27 508 0 508 0 7
-42z"/>
<path d="M875 1872 c-29 -4 -45 -16 -45 -38 0 -8 127 -13 161 -5 12 2 17 41 6
42 -41 3 -96 4 -122 1z"/>
<path d="M1081 1870 c-22 -3 -36 -12 -41 -26 -8 -20 -5 -20 72 -20 66 1 81 4
90 19 5 10 8 20 6 23 -8 7 -91 10 -127 4z"/>
<path d="M1290 1872 c-19 -2 -38 -9 -42 -15 -19 -29 -7 -34 73 -33 75 1 82 3
90 24 9 23 11 22 -61 26 -14 0 -41 0 -60 -2z"/>
<path d="M1464 1867 c-8 -4 -14 -16 -14 -26 0 -17 8 -19 76 -17 60 1 79 5 88
18 5 9 8 19 5 22 -9 9 -139 12 -155 3z"/>
<path d="M1684 1871 c-10 -2 -22 -8 -26 -15 -19 -28 -7 -33 73 -32 75 1 82 3
90 24 5 12 5 22 1 23 -23 3 -122 3 -138 0z"/>
<path d="M1887 1872 c-22 -3 -28 -8 -25 -25 3 -20 9 -22 73 -23 84 0 95 3 95
27 0 14 -7 19 -27 20 -16 0 -41 1 -58 2 -16 1 -43 1 -58 -1z"/>
<path d="M2074 1871 c-2 -2 -4 -14 -4 -26 0 -21 4 -22 79 -21 74 0 80 2 84 23
4 19 0 23 -24 24 -111 4 -131 4 -135 0z"/>
<path d="M2278 1863 c-24 -29 -1 -40 79 -39 73 1 78 3 81 24 3 17 -2 22 -20
23 -112 4 -131 3 -140 -8z"/>
<path d="M2499 1872 c-21 -2 -25 -7 -22 -26 4 -21 10 -22 79 -23 60 0 76 3 84
16 5 10 6 21 2 27 -7 9 -89 12 -143 6z"/>
<path d="M2717 1872 c-33 -3 -38 -6 -35 -25 3 -21 9 -22 86 -23 79 -1 82 0 82
23 0 15 -6 23 -17 24 -10 0 -31 1 -48 2 -16 1 -47 1 -68 -1z"/>
<path d="M2893 1863 c-13 -32 5 -40 83 -39 76 1 92 8 75 34 -11 19 -151 23
-158 5z"/>
<path d="M3113 1872 c-23 -3 -29 -18 -15 -37 4 -6 42 -11 85 -11 74 -1 77 0
77 23 0 17 -6 23 -22 24 -13 0 -41 1 -63 2 -22 1 -50 1 -62 -1z"/>
<path d="M3319 1870 c-21 -4 -25 -9 -19 -25 6 -18 17 -20 89 -21 80 -1 92 4
73 33 -9 14 -100 22 -143 13z"/>
<path d="M3516 1872 c-11 -2 -15 -9 -12 -19 3 -8 6 -18 6 -21 0 -4 37 -8 83
-8 83 -1 84 -1 79 22 -2 13 -7 24 -11 25 -36 3 -132 3 -145 1z"/>
<path d="M3724 1871 c-16 -5 -20 -11 -14 -26 6 -18 16 -20 89 -20 79 0 90 5
73 32 -8 13 -113 23 -148 14z"/>
<path d="M3927 1872 c-19 -4 -21 -11 -7 -32 7 -11 30 -15 88 -15 l80 -1 -9 25
c-9 24 -14 26 -72 26 -35 0 -71 -1 -80 -3z"/>
<path d="M4129 1872 c-11 -2 -15 -10 -12 -23 6 -23 -1 -21 99 -23 l82 -2 -11
23 c-6 13 -19 23 -31 24 -12 0 -41 1 -66 2 -25 1 -52 1 -61 -1z"/>
<path d="M811 1795 c-5 -5 -16 -24 -25 -42 -12 -23 -12 -32 -3 -35 10 -4 124
-3 164 1 14 1 47 71 38 80 -11 10 -166 7 -174 -4z"/>
<path d="M1019 1766 c-10 -22 -16 -43 -14 -46 2 -3 43 -6 91 -5 l87 0 18 43
c10 23 15 42 11 43 -4 1 -45 2 -91 3 l-84 2 -18 -40z"/>
<path d="M1274 1802 c-18 -3 -44 -48 -44 -78 0 -6 38 -10 92 -9 l92 0 12 43
c7 23 12 42 11 43 -5 3 -145 4 -163 1z"/>
<path d="M1480 1794 c-5 -6 -11 -26 -12 -45 l-3 -34 83 0 c46 0 87 4 92 10 4
5 11 26 15 45 l6 35 -86 0 c-50 0 -90 -4 -95 -11z"/>
<path d="M1723 1802 c-15 -2 -25 -12 -29 -30 -3 -15 -7 -33 -10 -39 -4 -16 -8
-15 94 -17 79 -2 94 3 98 29 10 64 15 59 -61 60 -38 0 -80 -1 -92 -3z"/>
<path d="M1931 1795 c-15 -19 -21 -73 -8 -77 16 -6 165 -3 171 3 3 2 6 22 8
44 l3 39 -83 1 c-46 0 -87 -4 -91 -10z"/>
<path d="M2150 1786 c-4 -11 -7 -32 -6 -46 1 -25 2 -25 81 -25 44 -1 86 1 93
3 13 4 17 81 5 83 -5 1 -43 2 -87 3 -70 1 -79 -1 -86 -18z"/>
<path d="M2382 1802 c-7 -2 -12 -22 -12 -46 l0 -42 92 1 92 0 2 43 c0 24 -4
42 -10 43 -34 4 -154 5 -164 1z"/>
<path d="M2608 1800 c-11 -4 -16 -39 -9 -78 2 -11 181 -9 182 3 2 19 -3 70 -7
74 -6 7 -150 8 -166 1z"/>
<path d="M2825 1801 c-11 -10 -4 -81 8 -82 6 -1 49 -2 95 -3 l83 -2 -3 39 c-1
21 -7 41 -12 45 -12 7 -164 11 -171 3z"/>
<path d="M3050 1800 c-9 -5 -3 -70 7 -80 2 -2 45 -5 94 -5 l89 0 -6 40 c-3 22
-8 42 -10 45 -7 6 -163 7 -174 0z"/>
<path d="M3273 1803 c-8 -3 -9 -12 -3 -29 5 -13 7 -24 4 -24 -2 0 0 -8 5 -18
8 -16 22 -18 95 -18 47 1 86 5 86 9 0 76 -3 78 -96 81 -44 1 -85 1 -91 -1z"/>
<path d="M3494 1798 c-6 -10 15 -78 24 -79 4 -1 45 -2 90 -3 l84 -2 -6 35 c-3
19 -10 39 -16 45 -12 12 -169 16 -176 4z"/>
<path d="M3719 1799 c-9 -5 10 -69 23 -79 10 -8 385 -6 393 2 4 3 -2 23 -13
45 l-20 38 -187 0 c-103 0 -191 -2 -196 -6z"/>
<path d="M4154 1798 c-3 -4 4 -25 15 -46 l20 -38 75 1 c41 0 77 3 80 6 3 2 -5
22 -17 44 l-22 39 -73 1 c-41 0 -76 -3 -78 -7z"/>
<path d="M735 1653 c-15 -27 -19 -43 -12 -44 45 -4 300 -3 305 1 12 9 42 80
34 81 -4 1 -74 2 -155 3 l-148 2 -24 -43z"/>
<path d="M1111 1685 c-18 -24 -39 -75 -30 -76 5 0 48 -1 97 -2 83 -1 88 0 99
24 29 61 26 64 -70 64 -49 0 -92 -4 -96 -10z"/>
<path d="M1326 1656 c-9 -22 -12 -42 -7 -45 8 -5 109 -6 172 -2 16 1 45 79 30
82 -3 1 -45 2 -93 3 l-87 1 -15 -39z"/>
<path d="M1574 1685 c-16 -12 -31 -75 -18 -76 40 -4 168 -3 175 2 13 8 28 64
20 75 -9 13 -160 12 -177 -1z"/>
<path d="M1801 1680 c-17 -33 -22 -70 -9 -71 79 -6 171 -2 179 7 5 6 10 26 11
45 l3 34 -88 0 c-70 1 -90 -3 -96 -15z"/>
<path d="M2029 1672 c-5 -13 -9 -33 -9 -45 0 -21 4 -22 90 -22 49 1 91 3 94 5
10 11 15 80 6 81 -6 1 -46 2 -91 3 -77 2 -82 0 -90 -22z"/>
<path d="M2265 1689 c-11 -18 -13 -79 -2 -80 52 -5 155 -3 170 4 11 5 17 19
17 42 0 19 -3 36 -7 36 -31 5 -175 4 -178 -2z"/>
<path d="M2501 1692 c-6 -2 -11 -22 -11 -45 l0 -42 95 0 96 0 -3 45 -3 45 -81
0 c-45 1 -86 -1 -93 -3z"/>
<path d="M2723 1684 c-2 -7 -3 -27 -1 -45 l3 -33 85 -1 c47 0 90 1 96 3 11 3
8 70 -3 82 -2 2 -43 5 -90 6 -59 0 -86 -3 -90 -12z"/>
<path d="M2954 1688 c-8 -12 0 -69 10 -75 13 -9 165 -10 178 -2 7 5 8 19 1 45
l-9 39 -88 0 c-48 0 -90 -3 -92 -7z"/>
<path d="M3184 1656 c4 -21 8 -42 10 -45 3 -5 131 -6 183 -2 9 1 9 11 -1 43
l-12 43 -93 0 -93 0 6 -39z"/>
<path d="M3414 1689 c-2 -4 2 -24 8 -45 l13 -38 83 0 c46 -1 88 2 93 5 6 3 4
21 -3 45 l-13 39 -88 0 c-49 1 -90 -2 -93 -6z"/>
<path d="M3644 1689 c-5 -8 17 -72 27 -79 6 -4 134 -5 176 -1 15 1 -15 80 -31
83 -35 4 -168 2 -172 -3z"/>
<path d="M3874 1688 c-7 -10 29 -83 41 -83 34 -2 53 -19 65 -58 8 -23 17 -46
20 -50 7 -8 84 -10 207 -8 l42 1 -18 43 c-10 23 -28 63 -40 89 -11 26 -21 52
-21 57 0 13 4 13 -158 15 -74 1 -136 -2 -138 -6z"/>
<path d="M4212 1692 c-15 -5 20 -82 38 -83 76 -5 150 -2 150 6 -1 6 -9 26 -19
45 -19 34 -19 34 -89 35 -38 0 -75 -1 -80 -3z"/>
<path d="M2243 1582 c-6 -4 -48 -6 -92 -5 -70 1 -81 -1 -82 -15 0 -9 -3 -29
-5 -44 -4 -26 -2 -28 28 -29 57 -2 162 2 166 5 2 2 2 24 0 50 -2 31 -7 43 -15
38z"/>
<path d="M702 1571 c-11 -7 -43 -73 -39 -78 4 -3 168 -5 322 -4 l61 1 14 38
c8 20 16 40 18 43 3 8 -364 8 -376 0z"/>
<path d="M1124 1571 c-8 -8 -35 -73 -32 -77 4 -3 75 -6 140 -5 54 1 57 2 67
32 20 57 19 58 -79 57 -49 -1 -93 -4 -96 -7z"/>
<path d="M1346 1533 c-17 -50 -27 -45 99 -43 44 1 83 4 87 8 3 4 9 23 13 43
l7 37 -96 -1 -95 0 -15 -44z"/>
<path d="M1595 1566 c-2 -6 -8 -26 -14 -43 l-10 -33 99 0 c54 0 101 3 104 8 2
4 7 23 11 43 l7 36 -97 0 c-60 0 -98 -5 -100 -11z"/>
<path d="M1829 1553 c-21 -56 -15 -63 59 -64 84 -1 115 1 124 9 3 4 8 23 10
42 l3 35 -93 1 c-90 1 -94 0 -103 -23z"/>
<path d="M2309 1566 c-6 -48 -6 -62 1 -71 5 -6 46 -9 99 -7 l91 3 0 44 0 44
-95 -2 c-58 0 -95 -5 -96 -11z"/>
<path d="M2549 1576 c-1 0 -2 -20 -4 -43 -1 -37 1 -43 19 -44 35 -1 181 2 182
4 1 1 -1 20 -5 42 l-6 40 -93 1 c-50 1 -93 1 -93 0z"/>
<path d="M2786 1571 c-6 -10 0 -71 7 -77 6 -6 187 -8 192 -2 2 2 0 21 -4 43
l-6 40 -93 1 c-51 0 -94 -2 -96 -5z"/>
<path d="M3024 1536 c3 -21 7 -40 8 -42 3 -3 106 -6 160 -5 35 1 36 2 32 34
-8 56 -6 55 -109 54 l-96 -1 5 -40z"/>
<path d="M3265 1569 c-3 -5 -3 -24 1 -44 6 -36 8 -37 84 -37 11 0 43 0 70 1
l51 1 -7 38 c-4 20 -9 39 -11 42 -8 9 -183 9 -188 -1z"/>
<path d="M3502 1541 c6 -20 13 -40 18 -44 8 -9 178 -12 186 -4 3 3 0 23 -7 45
l-11 40 -98 -1 -97 -1 9 -35z"/>
<path d="M3737 1573 c-9 -9 17 -74 32 -81 9 -4 55 -5 103 -2 l87 5 -18 41 -19
41 -90 0 c-50 1 -93 -1 -95 -4z"/>
<path d="M4260 1568 c0 -28 34 -78 54 -79 64 -3 138 -1 142 4 5 4 -21 63 -33
77 -9 10 -163 9 -163 -2z"/>
<path d="M644 1452 c-5 -4 -20 -26 -32 -49 l-22 -43 143 0 143 0 17 38 c9 21
17 44 17 50 0 13 -247 17 -266 4z"/>
<path d="M954 1442 c-5 -15 -19 -48 -32 -74 -2 -5 43 -8 100 -8 l103 0 18 43
c9 23 17 45 17 49 0 4 -45 7 -101 7 -85 0 -101 -3 -105 -17z"/>
<path d="M1202 1438 c-6 -13 -16 -35 -22 -50 l-10 -28 103 0 103 0 16 45 c9
24 14 46 10 49 -4 2 -48 4 -98 5 -85 2 -91 0 -102 -21z"/>
<path d="M1438 1409 l-16 -49 103 0 103 0 11 44 c6 25 11 47 11 50 0 3 -44 5
-98 5 l-99 0 -15 -50z"/>
<path d="M1690 1436 c-27 -72 -22 -76 89 -76 l100 0 9 43 c5 23 7 45 5 49 -2
4 -46 7 -99 7 -90 0 -95 -1 -104 -23z"/>
<path d="M1940 1434 c-6 -14 -10 -36 -10 -50 0 -24 1 -24 100 -24 55 0 100 3
101 8 0 4 3 26 5 50 l5 42 -96 0 c-93 0 -96 -1 -105 -26z"/>
<path d="M2187 1453 c-4 -3 -7 -26 -7 -50 l0 -44 102 3 101 3 1 45 1 45 -96 2
c-53 2 -99 0 -102 -4z"/>
<path d="M2428 1420 c-2 -21 -2 -44 0 -49 2 -7 42 -11 103 -11 l99 0 0 50 0
50 -99 -1 -99 -1 -4 -38z"/>
<path d="M2679 1452 c-2 -10 -2 -65 0 -79 1 -10 28 -13 99 -13 54 0 101 2 104
5 2 3 2 24 -1 47 l-6 43 -97 2 c-54 1 -98 -1 -99 -5z"/>
<path d="M2924 1446 c-2 -6 -2 -23 0 -36 2 -14 5 -31 5 -37 1 -10 28 -13 102
-13 l100 0 -3 49 -3 50 -98 -1 c-66 0 -100 -4 -103 -12z"/>
<path d="M3170 1432 c0 -70 3 -72 109 -72 54 0 100 2 103 5 3 3 0 25 -7 48
l-12 42 -97 2 -96 2 0 -27z"/>
<path d="M3410 1453 c0 -2 5 -24 11 -49 l11 -44 104 0 103 0 -14 48 c-8 26
-15 48 -15 50 0 5 -200 0 -200 -5z"/>
<path d="M3660 1447 c0 -7 5 -29 11 -49 l10 -38 309 0 c208 0 310 3 310 10 0
6 -9 28 -20 50 l-20 39 -300 0 c-228 0 -300 -3 -300 -12z"/>
<path d="M4310 1453 c0 -4 9 -26 21 -50 l21 -43 89 0 89 0 -21 43 c-12 23 -27
45 -33 49 -14 10 -166 10 -166 1z"/>
<path d="M563 1303 c-11 -16 -24 -40 -31 -55 l-12 -28 109 0 108 0 19 47 c11
27 20 51 22 55 2 5 -41 8 -96 8 -99 0 -101 -1 -119 -27z"/>
<path d="M807 1281 c-9 -27 -17 -51 -17 -55 0 -3 45 -6 100 -6 l101 0 19 43
c31 68 32 67 -83 67 l-102 0 -18 -49z"/>
<path d="M1062 1281 c-11 -27 -18 -52 -14 -55 3 -3 49 -6 103 -6 108 0 107 -1
127 73 l10 37 -102 0 -103 0 -21 -49z"/>
<path d="M1325 1298 c-30 -74 -31 -73 82 -76 114 -3 114 -3 127 71 l7 37 -101
0 -101 0 -14 -32z"/>
<path d="M1585 1318 c-14 -42 -22 -87 -17 -92 3 -3 331 -6 729 -6 l723 0 0 24
c0 13 -3 38 -6 55 l-6 31 -710 0 c-558 0 -710 -3 -713 -12z"/>
<path d="M3060 1298 c0 -78 1 -78 117 -78 l104 0 -6 38 c-11 75 -6 72 -116 72
l-99 0 0 -32z"/>
<path d="M3314 1293 c14 -77 7 -73 123 -73 l105 0 -7 28 c-4 15 -8 35 -10 45
-7 34 -17 37 -117 37 l-100 0 6 -37z"/>
<path d="M3560 1327 c0 -2 7 -27 15 -55 l16 -52 104 0 c116 0 111 -4 85 76
l-12 34 -104 0 c-57 0 -104 -1 -104 -3z"/>
<path d="M3826 1308 c3 -13 12 -38 20 -55 l13 -33 100 0 c112 0 111 -1 85 67
l-17 43 -104 0 c-104 0 -104 0 -97 -22z"/>
<path d="M4080 1328 c0 -2 9 -25 19 -53 l19 -50 106 -3 c58 -1 106 1 106 4 0
4 -10 29 -22 56 l-22 48 -103 0 c-57 0 -103 -1 -103 -2z"/>
<path d="M4340 1323 c0 -4 11 -28 24 -53 l23 -45 101 -3 c115 -3 116 -2 79 63
l-23 40 -102 3 c-56 1 -102 -1 -102 -5z"/>
</g>
</svg>
